<svg xmlns="http://www.w3.org/2000/svg" xmlns:xlink="http://www.w3.org/1999/xlink" width="1920" zoomAndPan="magnify" viewBox="0 0 1440 809.999993" height="1080" preserveAspectRatio="xMidYMid meet" version="1.0"><defs><g/><clipPath id="87b3e6796a"><path d="M 1000.71875 360.496094 L 1149.195312 360.496094 L 1149.195312 508.976562 L 1000.71875 508.976562 Z M 1000.71875 360.496094 " clip-rule="nonzero"/></clipPath><clipPath id="e19612fec7"><path d="M 1074.957031 360.496094 C 1033.957031 360.496094 1000.71875 393.734375 1000.71875 434.734375 C 1000.71875 475.738281 1033.957031 508.976562 1074.957031 508.976562 C 1115.957031 508.976562 1149.195312 475.738281 1149.195312 434.734375 C 1149.195312 393.734375 1115.957031 360.496094 1074.957031 360.496094 Z M 1074.957031 360.496094 " clip-rule="nonzero"/></clipPath><clipPath id="57a1788d5f"><path d="M 188.558594 421 L 1251.308594 421 L 1251.308594 567 L 188.558594 567 Z M 188.558594 421 " clip-rule="nonzero"/></clipPath><clipPath id="d3f9ed6dfd"><path d="M 188.558594 302.539062 L 1251.308594 302.539062 L 1251.308594 553 L 188.558594 553 Z M 188.558594 302.539062 " clip-rule="nonzero"/></clipPath><clipPath id="0c5c134cf3"><path d="M 331 382.226562 L 528.875 382.226562 L 528.875 487.226562 L 331 487.226562 Z M 331 382.226562 " clip-rule="nonzero"/></clipPath></defs><g clip-path="url(#87b3e6796a)"><g clip-path="url(#e19612fec7)"><path fill="#ffffff" d="M 1000.71875 360.496094 L 1149.195312 360.496094 L 1149.195312 508.976562 L 1000.71875 508.976562 Z M 1000.71875 360.496094 " fill-opacity="1" fill-rule="nonzero"/></g></g><path stroke-linecap="butt" transform="matrix(0.75, 0, 0, 0.75, 1033.722026, 426.860975)" fill="none" stroke-linejoin="miter" d="M 0.000840044 10.497868 L 99.464387 10.497868 " stroke="#000123" stroke-width="21" stroke-opacity="1" stroke-miterlimit="4"/><path stroke-linecap="round" transform="matrix(0.75, 0, 0, 0.75, 1033.722026, 426.860975)" fill="none" stroke-linejoin="round" d="M 57.464385 -21.002134 L 99.464387 10.497868 L 57.464385 41.997869 " stroke="#000123" stroke-width="21" stroke-opacity="1" stroke-miterlimit="4"/><g clip-path="url(#57a1788d5f)"><path fill="#af0f1c" d="M 1251.414062 421.109375 L 1251.414062 441.609375 C 1251.414062 510.632812 1195.453125 566.574219 1126.449219 566.574219 L 313.542969 566.574219 C 244.523438 566.574219 188.558594 510.632812 188.558594 441.609375 L 188.558594 421.109375 Z M 1251.414062 421.109375 " fill-opacity="1" fill-rule="evenodd"/></g><g clip-path="url(#d3f9ed6dfd)"><path fill="#f53d3b" d="M 313.542969 302.847656 L 1126.449219 302.847656 C 1195.472656 302.847656 1251.4375 358.8125 1251.4375 427.835938 C 1251.4375 496.855469 1195.472656 552.820312 1126.449219 552.820312 L 313.542969 552.820312 C 244.523438 552.820312 188.558594 496.855469 188.558594 427.835938 C 188.558594 358.8125 244.523438 302.847656 313.542969 302.847656 Z M 313.542969 302.847656 " fill-opacity="1" fill-rule="nonzero"/></g><g fill="#ffffff" fill-opacity="1"><g transform="translate(675.608852, 464.660569)"><g><path d="M 9.03125 0 L 9.03125 -63.234375 L 53.296875 -63.234375 L 63.234375 -53.296875 L 63.234375 -40.203125 L 57.375 -34.328125 L 66.40625 -25.296875 L 66.40625 -10.84375 L 55.5625 0 Z M 17.609375 -36.59375 L 48.78125 -36.59375 L 54.65625 -42.46875 L 54.65625 -50.140625 L 49.234375 -55.5625 L 17.609375 -55.5625 Z M 17.609375 -7.671875 L 51.5 -7.671875 L 57.8125 -14 L 57.8125 -22.578125 L 51.5 -28.90625 L 17.609375 -28.90625 Z M 17.609375 -7.671875 "/></g></g></g><g fill="#ffffff" fill-opacity="1"><g transform="translate(744.265751, 464.660569)"><g><path d="M 41.109375 -63.234375 L 67.3125 -3.15625 L 67.3125 0 L 59.171875 0 L 51.859375 -17.171875 L 17.4375 -17.171875 L 10.125 0 L 2.265625 0 L 2.265625 -3.15625 L 28 -63.234375 Z M 20.6875 -24.84375 L 48.515625 -24.84375 L 35.421875 -55.5625 L 33.78125 -55.5625 Z M 20.6875 -24.84375 "/></g></g></g><g fill="#ffffff" fill-opacity="1"><g transform="translate(810.212506, 464.660569)"><g><path d="M 19.875 0 L 7.234375 -12.640625 L 7.234375 -50.59375 L 19.875 -63.234375 L 59.625 -63.234375 L 59.625 -55.5625 L 23.9375 -55.5625 L 15.8125 -47.4375 L 15.8125 -15.8125 L 23.9375 -7.671875 L 59.625 -7.671875 L 59.625 0 Z M 19.875 0 "/></g></g></g><g fill="#ffffff" fill-opacity="1"><g transform="translate(870.738965, 464.660569)"><g><path d="M 9.03125 0 L 9.03125 -63.234375 L 17.609375 -63.234375 L 17.609375 -35.6875 L 34.0625 -35.6875 L 53.9375 -63.234375 L 61.890625 -63.234375 L 61.890625 -60.078125 L 41.5625 -32.078125 L 63.6875 -3.15625 L 63.6875 0 L 55.375 0 L 34.0625 -28 L 17.609375 -28 L 17.609375 0 Z M 9.03125 0 "/></g></g></g><g clip-path="url(#0c5c134cf3)"><path fill="#ffffff" d="M 528.289062 487.226562 L 528.289062 460.898438 L 494.421875 434.675781 L 528.289062 408.558594 L 528.289062 382.226562 L 460.449219 434.78125 Z M 463.792969 487.226562 L 463.792969 460.898438 L 429.925781 434.675781 L 463.792969 408.558594 L 463.792969 382.226562 L 395.953125 434.78125 Z M 399.296875 487.226562 L 399.296875 460.898438 L 365.433594 434.675781 L 399.296875 408.558594 L 399.296875 382.226562 L 331.460938 434.78125 Z M 399.296875 487.226562 " fill-opacity="1" fill-rule="nonzero"/></g></svg>