<svg xmlns="http://www.w3.org/2000/svg" xmlns:xlink="http://www.w3.org/1999/xlink" width="1366" zoomAndPan="magnify" viewBox="0 0 1024.5 576" height="768" preserveAspectRatio="xMidYMid meet" version="1.0"><defs><g/><clipPath id="d906ca20f7"><path d="M 30.050781 157.515625 L 993.949219 157.515625 L 993.949219 389.992188 L 30.050781 389.992188 Z M 30.050781 157.515625 " clip-rule="nonzero"/></clipPath><clipPath id="e1573ef5de"><path d="M 105.011719 157.515625 L 918.988281 157.515625 C 960.386719 157.515625 993.949219 191.078125 993.949219 232.476562 L 993.949219 315.03125 C 993.949219 356.429688 960.386719 389.992188 918.988281 389.992188 L 105.011719 389.992188 C 63.613281 389.992188 30.050781 356.429688 30.050781 315.03125 L 30.050781 232.476562 C 30.050781 191.078125 63.613281 157.515625 105.011719 157.515625 Z M 105.011719 157.515625 " clip-rule="nonzero"/></clipPath><clipPath id="4fb2ad06a3"><path d="M 800.445312 197.699219 L 952.554688 197.699219 L 952.554688 349.808594 L 800.445312 349.808594 Z M 800.445312 197.699219 " clip-rule="nonzero"/></clipPath><clipPath id="510c701895"><path d="M 876.5 197.699219 C 834.496094 197.699219 800.445312 231.75 800.445312 273.753906 C 800.445312 315.757812 834.496094 349.808594 876.5 349.808594 C 918.503906 349.808594 952.554688 315.757812 952.554688 273.753906 C 952.554688 231.75 918.503906 197.699219 876.5 197.699219 Z M 876.5 197.699219 " clip-rule="nonzero"/></clipPath></defs><g clip-path="url(#d906ca20f7)"><g clip-path="url(#e1573ef5de)"><path fill="#ff3131" d="M 30.050781 157.515625 L 993.949219 157.515625 L 993.949219 389.992188 L 30.050781 389.992188 Z M 30.050781 157.515625 " fill-opacity="1" fill-rule="nonzero"/></g></g><g clip-path="url(#4fb2ad06a3)"><g clip-path="url(#510c701895)"><path fill="#ffffff" d="M 800.445312 197.699219 L 952.554688 197.699219 L 952.554688 349.808594 L 800.445312 349.808594 Z M 800.445312 197.699219 " fill-opacity="1" fill-rule="nonzero"/></g></g><path stroke-linecap="butt" transform="matrix(0.749634, 0, 0, 0.749634, 834.257204, 265.882815)" fill="none" stroke-linejoin="miter" d="M 0.000811893 10.499911 L 102.206923 10.499911 " stroke="#000123" stroke-width="21" stroke-opacity="1" stroke-miterlimit="4"/><path stroke-linecap="round" transform="matrix(0.749634, 0, 0, 0.749634, 834.257204, 265.882815)" fill="none" stroke-linejoin="round" d="M 60.207267 -20.999831 L 102.206923 10.499911 L 60.207267 41.999653 " stroke="#000123" stroke-width="21" stroke-opacity="1" stroke-miterlimit="4"/><g fill="#ffffff" fill-opacity="1"><g transform="translate(97.74056, 305.88958)"><g><path d="M 9.25 0 L 9.25 -64.78125 L 52.75 -64.78125 L 64.78125 -52.75 L 64.78125 -32.859375 L 52.75 -20.828125 L 18.046875 -20.828125 L 18.046875 0 Z M 18.046875 -28.6875 L 48.59375 -28.6875 L 55.984375 -36.09375 L 55.984375 -49.515625 L 48.59375 -56.921875 L 18.046875 -56.921875 Z M 18.046875 -28.6875 "/></g></g></g><g fill="#ffffff" fill-opacity="1"><g transform="translate(163.912046, 305.88958)"><g><path d="M 9.25 0 L 9.25 -64.78125 L 53.21875 -64.78125 L 65.25 -52.75 L 65.25 -35.171875 L 53.21875 -23.140625 L 67.375 -3.234375 L 67.375 0 L 58.859375 0 L 42.578125 -23.140625 L 18.046875 -23.140625 L 18.046875 0 Z M 18.046875 -31 L 49.046875 -31 L 56.453125 -38.40625 L 56.453125 -49.515625 L 49.046875 -56.921875 L 18.046875 -56.921875 Z M 18.046875 -31 "/></g></g></g><g fill="#ffffff" fill-opacity="1"><g transform="translate(233.13761, 305.88958)"><g><path d="M 9.25 0 L 9.25 -64.78125 L 62.9375 -64.78125 L 62.9375 -56.921875 L 18.046875 -56.921875 L 18.046875 -36.5625 L 52.75 -36.5625 L 52.75 -28.6875 L 18.046875 -28.6875 L 18.046875 -7.859375 L 63.859375 -7.859375 L 63.859375 0 Z M 9.25 0 "/></g></g></g><g fill="#ffffff" fill-opacity="1"><g transform="translate(296.995407, 305.88958)"><g><path d="M 6.9375 0 L 6.9375 -7.859375 L 47.65625 -7.859375 L 53.21875 -13.421875 L 53.21875 -23.59375 L 47.65625 -29.15625 L 16.203125 -29.15625 L 6.015625 -39.328125 L 6.015625 -54.609375 L 16.203125 -64.78125 L 58.765625 -64.78125 L 58.765625 -56.921875 L 20.359375 -56.921875 L 14.8125 -51.359375 L 14.8125 -42.578125 L 20.359375 -37.015625 L 51.828125 -37.015625 L 62 -26.84375 L 62 -10.1875 L 51.828125 0 Z M 6.9375 0 "/></g></g></g><g fill="#ffffff" fill-opacity="1"><g transform="translate(359.927719, 305.88958)"><g><path d="M 6.9375 0 L 6.9375 -7.859375 L 47.65625 -7.859375 L 53.21875 -13.421875 L 53.21875 -23.59375 L 47.65625 -29.15625 L 16.203125 -29.15625 L 6.015625 -39.328125 L 6.015625 -54.609375 L 16.203125 -64.78125 L 58.765625 -64.78125 L 58.765625 -56.921875 L 20.359375 -56.921875 L 14.8125 -51.359375 L 14.8125 -42.578125 L 20.359375 -37.015625 L 51.828125 -37.015625 L 62 -26.84375 L 62 -10.1875 L 51.828125 0 Z M 6.9375 0 "/></g></g></g><g fill="#ffffff" fill-opacity="1"><g transform="translate(422.860031, 305.88958)"><g/></g></g><g fill="#ffffff" fill-opacity="1"><g transform="translate(450.624184, 305.88958)"><g><path d="M 6.9375 0 L 6.9375 -7.859375 L 47.65625 -7.859375 L 53.21875 -13.421875 L 53.21875 -23.59375 L 47.65625 -29.15625 L 16.203125 -29.15625 L 6.015625 -39.328125 L 6.015625 -54.609375 L 16.203125 -64.78125 L 58.765625 -64.78125 L 58.765625 -56.921875 L 20.359375 -56.921875 L 14.8125 -51.359375 L 14.8125 -42.578125 L 20.359375 -37.015625 L 51.828125 -37.015625 L 62 -26.84375 L 62 -10.1875 L 51.828125 0 Z M 6.9375 0 "/></g></g></g><g fill="#ffffff" fill-opacity="1"><g transform="translate(513.556519, 305.88958)"><g><path d="M 26.375 0 L 26.375 -56.921875 L 0.921875 -56.921875 L 0.921875 -64.78125 L 60.625 -64.78125 L 60.625 -56.921875 L 35.171875 -56.921875 L 35.171875 0 Z M 26.375 0 "/></g></g></g><g fill="#ffffff" fill-opacity="1"><g transform="translate(571.398707, 305.88958)"><g><path d="M 42.109375 -64.78125 L 68.953125 -3.234375 L 68.953125 0 L 60.625 0 L 53.125 -17.578125 L 17.859375 -17.578125 L 10.359375 0 L 2.3125 0 L 2.3125 -3.234375 L 28.6875 -64.78125 Z M 21.1875 -25.453125 L 49.703125 -25.453125 L 36.28125 -56.921875 L 34.609375 -56.921875 Z M 21.1875 -25.453125 "/></g></g></g><g fill="#ffffff" fill-opacity="1"><g transform="translate(638.958429, 305.88958)"><g><path d="M 9.25 0 L 9.25 -64.78125 L 53.21875 -64.78125 L 65.25 -52.75 L 65.25 -35.171875 L 53.21875 -23.140625 L 67.375 -3.234375 L 67.375 0 L 58.859375 0 L 42.578125 -23.140625 L 18.046875 -23.140625 L 18.046875 0 Z M 18.046875 -31 L 49.046875 -31 L 56.453125 -38.40625 L 56.453125 -49.515625 L 49.046875 -56.921875 L 18.046875 -56.921875 Z M 18.046875 -31 "/></g></g></g><g fill="#ffffff" fill-opacity="1"><g transform="translate(708.183978, 305.88958)"><g><path d="M 26.375 0 L 26.375 -56.921875 L 0.921875 -56.921875 L 0.921875 -64.78125 L 60.625 -64.78125 L 60.625 -56.921875 L 35.171875 -56.921875 L 35.171875 0 Z M 26.375 0 "/></g></g></g></svg>