<svg xmlns="http://www.w3.org/2000/svg" xmlns:xlink="http://www.w3.org/1999/xlink" width="1920" zoomAndPan="magnify" viewBox="0 0 1440 809.999993" height="1080" preserveAspectRatio="xMidYMid meet" version="1.0"><defs><g/><clipPath id="1aff0abe07"><path d="M 1000.71875 360.496094 L 1149.195312 360.496094 L 1149.195312 508.976562 L 1000.71875 508.976562 Z M 1000.71875 360.496094 " clip-rule="nonzero"/></clipPath><clipPath id="70246603ca"><path d="M 1074.957031 360.496094 C 1033.957031 360.496094 1000.71875 393.734375 1000.71875 434.734375 C 1000.71875 475.738281 1033.957031 508.976562 1074.957031 508.976562 C 1115.957031 508.976562 1149.195312 475.738281 1149.195312 434.734375 C 1149.195312 393.734375 1115.957031 360.496094 1074.957031 360.496094 Z M 1074.957031 360.496094 " clip-rule="nonzero"/></clipPath><clipPath id="8748cf1092"><path d="M 188.558594 421 L 1251.308594 421 L 1251.308594 567 L 188.558594 567 Z M 188.558594 421 " clip-rule="nonzero"/></clipPath><clipPath id="a2ea264b4a"><path d="M 188.558594 302.539062 L 1251.308594 302.539062 L 1251.308594 553 L 188.558594 553 Z M 188.558594 302.539062 " clip-rule="nonzero"/></clipPath><clipPath id="fb18e4bb1e"><path d="M 995 379.976562 L 1192 379.976562 L 1192 484.976562 L 995 484.976562 Z M 995 379.976562 " clip-rule="nonzero"/></clipPath></defs><g clip-path="url(#1aff0abe07)"><g clip-path="url(#70246603ca)"><path fill="#ffffff" d="M 1000.71875 360.496094 L 1149.195312 360.496094 L 1149.195312 508.976562 L 1000.71875 508.976562 Z M 1000.71875 360.496094 " fill-opacity="1" fill-rule="nonzero"/></g></g><path stroke-linecap="butt" transform="matrix(0.75, 0, 0, 0.75, 1033.722026, 426.860975)" fill="none" stroke-linejoin="miter" d="M 0.000840044 10.497868 L 99.464387 10.497868 " stroke="#000123" stroke-width="21" stroke-opacity="1" stroke-miterlimit="4"/><path stroke-linecap="round" transform="matrix(0.75, 0, 0, 0.75, 1033.722026, 426.860975)" fill="none" stroke-linejoin="round" d="M 57.464385 -21.002134 L 99.464387 10.497868 L 57.464385 41.997869 " stroke="#000123" stroke-width="21" stroke-opacity="1" stroke-miterlimit="4"/><g clip-path="url(#8748cf1092)"><path fill="#af0f1c" d="M 1251.414062 421.109375 L 1251.414062 441.609375 C 1251.414062 510.632812 1195.453125 566.574219 1126.449219 566.574219 L 313.542969 566.574219 C 244.523438 566.574219 188.558594 510.632812 188.558594 441.609375 L 188.558594 421.109375 Z M 1251.414062 421.109375 " fill-opacity="1" fill-rule="evenodd"/></g><g clip-path="url(#a2ea264b4a)"><path fill="#f53d3b" d="M 313.542969 302.847656 L 1126.449219 302.847656 C 1195.472656 302.847656 1251.4375 358.8125 1251.4375 427.835938 C 1251.4375 496.855469 1195.472656 552.820312 1126.449219 552.820312 L 313.542969 552.820312 C 244.523438 552.820312 188.558594 496.855469 188.558594 427.835938 C 188.558594 358.8125 244.523438 302.847656 313.542969 302.847656 Z M 313.542969 302.847656 " fill-opacity="1" fill-rule="nonzero"/></g><g fill="#ffffff" fill-opacity="1"><g transform="translate(289.177731, 461.648382)"><g><path d="M 9.03125 0 L 9.03125 -63.234375 L 51.5 -63.234375 L 63.234375 -51.5 L 63.234375 -32.078125 L 51.5 -20.328125 L 17.609375 -20.328125 L 17.609375 0 Z M 17.609375 -28 L 47.4375 -28 L 54.65625 -35.234375 L 54.65625 -48.328125 L 47.4375 -55.5625 L 17.609375 -55.5625 Z M 17.609375 -28 "/></g></g></g><g fill="#ffffff" fill-opacity="1"><g transform="translate(353.769408, 461.648382)"><g><path d="M 9.03125 0 L 9.03125 -63.234375 L 51.953125 -63.234375 L 63.6875 -51.5 L 63.6875 -34.328125 L 51.953125 -22.578125 L 65.765625 -3.15625 L 65.765625 0 L 57.453125 0 L 41.5625 -22.578125 L 17.609375 -22.578125 L 17.609375 0 Z M 17.609375 -30.265625 L 47.875 -30.265625 L 55.109375 -37.5 L 55.109375 -48.328125 L 47.875 -55.5625 L 17.609375 -55.5625 Z M 17.609375 -30.265625 "/></g></g></g><g fill="#ffffff" fill-opacity="1"><g transform="translate(421.342249, 461.648382)"><g><path d="M 9.03125 0 L 9.03125 -63.234375 L 61.4375 -63.234375 L 61.4375 -55.5625 L 17.609375 -55.5625 L 17.609375 -35.6875 L 51.5 -35.6875 L 51.5 -28 L 17.609375 -28 L 17.609375 -7.671875 L 62.34375 -7.671875 L 62.34375 0 Z M 9.03125 0 "/></g></g></g><g fill="#ffffff" fill-opacity="1"><g transform="translate(483.675475, 461.648382)"><g><path d="M 6.78125 0 L 6.78125 -7.671875 L 46.53125 -7.671875 L 51.953125 -13.09375 L 51.953125 -23.03125 L 46.53125 -28.453125 L 15.8125 -28.453125 L 5.875 -38.390625 L 5.875 -53.296875 L 15.8125 -63.234375 L 57.375 -63.234375 L 57.375 -55.5625 L 19.875 -55.5625 L 14.453125 -50.140625 L 14.453125 -41.5625 L 19.875 -36.140625 L 50.59375 -36.140625 L 60.53125 -26.203125 L 60.53125 -9.9375 L 50.59375 0 Z M 6.78125 0 "/></g></g></g><g fill="#ffffff" fill-opacity="1"><g transform="translate(545.105312, 461.648382)"><g><path d="M 6.78125 0 L 6.78125 -7.671875 L 46.53125 -7.671875 L 51.953125 -13.09375 L 51.953125 -23.03125 L 46.53125 -28.453125 L 15.8125 -28.453125 L 5.875 -38.390625 L 5.875 -53.296875 L 15.8125 -63.234375 L 57.375 -63.234375 L 57.375 -55.5625 L 19.875 -55.5625 L 14.453125 -50.140625 L 14.453125 -41.5625 L 19.875 -36.140625 L 50.59375 -36.140625 L 60.53125 -26.203125 L 60.53125 -9.9375 L 50.59375 0 Z M 6.78125 0 "/></g></g></g><g fill="#ffffff" fill-opacity="1"><g transform="translate(606.535149, 461.648382)"><g/></g></g><g fill="#ffffff" fill-opacity="1"><g transform="translate(633.636448, 461.648382)"><g><path d="M 6.78125 0 L 6.78125 -7.671875 L 46.53125 -7.671875 L 51.953125 -13.09375 L 51.953125 -23.03125 L 46.53125 -28.453125 L 15.8125 -28.453125 L 5.875 -38.390625 L 5.875 -53.296875 L 15.8125 -63.234375 L 57.375 -63.234375 L 57.375 -55.5625 L 19.875 -55.5625 L 14.453125 -50.140625 L 14.453125 -41.5625 L 19.875 -36.140625 L 50.59375 -36.140625 L 60.53125 -26.203125 L 60.53125 -9.9375 L 50.59375 0 Z M 6.78125 0 "/></g></g></g><g fill="#ffffff" fill-opacity="1"><g transform="translate(695.066307, 461.648382)"><g><path d="M 25.75 0 L 25.75 -55.5625 L 0.90625 -55.5625 L 0.90625 -63.234375 L 59.171875 -63.234375 L 59.171875 -55.5625 L 34.328125 -55.5625 L 34.328125 0 Z M 25.75 0 "/></g></g></g><g fill="#ffffff" fill-opacity="1"><g transform="translate(751.527543, 461.648382)"><g><path d="M 41.109375 -63.234375 L 67.3125 -3.15625 L 67.3125 0 L 59.171875 0 L 51.859375 -17.171875 L 17.4375 -17.171875 L 10.125 0 L 2.265625 0 L 2.265625 -3.15625 L 28 -63.234375 Z M 20.6875 -24.84375 L 48.515625 -24.84375 L 35.421875 -55.5625 L 33.78125 -55.5625 Z M 20.6875 -24.84375 "/></g></g></g><g fill="#ffffff" fill-opacity="1"><g transform="translate(817.474314, 461.648382)"><g><path d="M 9.03125 0 L 9.03125 -63.234375 L 51.953125 -63.234375 L 63.6875 -51.5 L 63.6875 -34.328125 L 51.953125 -22.578125 L 65.765625 -3.15625 L 65.765625 0 L 57.453125 0 L 41.5625 -22.578125 L 17.609375 -22.578125 L 17.609375 0 Z M 17.609375 -30.265625 L 47.875 -30.265625 L 55.109375 -37.5 L 55.109375 -48.328125 L 47.875 -55.5625 L 17.609375 -55.5625 Z M 17.609375 -30.265625 "/></g></g></g><g fill="#ffffff" fill-opacity="1"><g transform="translate(885.047139, 461.648382)"><g><path d="M 25.75 0 L 25.75 -55.5625 L 0.90625 -55.5625 L 0.90625 -63.234375 L 59.171875 -63.234375 L 59.171875 -55.5625 L 34.328125 -55.5625 L 34.328125 0 Z M 25.75 0 "/></g></g></g><g clip-path="url(#fb18e4bb1e)"><path fill="#ffffff" d="M 995.128906 379.976562 L 995.128906 406.308594 L 1028.996094 432.53125 L 995.128906 458.648438 L 995.128906 484.976562 L 1062.96875 432.421875 Z M 1059.625 379.976562 L 1059.625 406.308594 L 1093.488281 432.53125 L 1059.625 458.648438 L 1059.625 484.976562 L 1127.460938 432.421875 Z M 1124.121094 379.976562 L 1124.121094 406.308594 L 1157.984375 432.53125 L 1124.121094 458.648438 L 1124.121094 484.976562 L 1191.957031 432.421875 Z M 1124.121094 379.976562 " fill-opacity="1" fill-rule="nonzero"/></g></svg>